<svg width="55" height="55" viewBox="0 0 55 55" fill="none" xmlns="http://www.w3.org/2000/svg">
<rect width="55" height="55" rx="10" fill="#FF6B72" fill-opacity="0.1"/>
<path d="M34.3317 19.3175C34.3317 15.1127 30.9249 11.7059 26.7201 11.7059C22.5153 11.7059 19.1085 15.1127 19.1085 19.3175C19.1085 21.8588 20.3546 24.1116 22.2697 25.4928C22.2575 25.4989 22.2483 25.502 22.2421 25.505C20.8702 26.0851 19.6394 26.9169 18.5806 27.9788C17.5278 29.0297 16.6897 30.2754 16.1129 31.6465C15.5455 32.9892 15.2392 34.4277 15.2106 35.8851C15.2098 35.9178 15.2155 35.9504 15.2275 35.9809C15.2395 36.0114 15.2574 36.0392 15.2803 36.0627C15.3032 36.0861 15.3305 36.1048 15.3607 36.1175C15.3909 36.1302 15.4234 36.1367 15.4561 36.1367H17.2946C17.4265 36.1367 17.537 36.0293 17.5401 35.8973C17.6015 33.5279 18.5499 31.3089 20.2287 29.627C21.9628 27.8867 24.2647 26.9291 26.7201 26.9291C30.9249 26.9291 34.3317 23.5223 34.3317 19.3175ZM26.7201 24.5966C23.8043 24.5966 21.4411 22.2333 21.4411 19.3175C21.4411 16.4018 23.8043 14.0385 26.7201 14.0385C29.6358 14.0385 31.9991 16.4018 31.9991 19.3175C31.9991 22.2333 29.6358 24.5966 26.7201 24.5966ZM29.9427 31.3795H38.0454C38.1805 31.3795 38.2909 31.269 38.2909 31.1339V29.4152C38.2909 29.2802 38.1805 29.1697 38.0454 29.1697H32.6283L34.0769 27.3251C34.1103 27.282 34.1287 27.2292 34.1291 27.1747C34.1291 27.0396 34.0186 26.9291 33.8836 26.9291H31.6553C31.505 26.9291 31.3638 26.9997 31.2686 27.1164L29.1662 29.7896C29.0312 29.9615 28.9575 30.1764 28.9575 30.3973C28.9606 30.9406 29.3995 31.3795 29.9427 31.3795ZM37.3088 33.3438H29.2061C29.0711 33.3438 28.9606 33.4543 28.9606 33.5893V35.3081C28.9606 35.4431 29.0711 35.5536 29.2061 35.5536H34.6233L33.1746 37.3982C33.1412 37.4412 33.1229 37.4941 33.1224 37.5486C33.1224 37.6836 33.2329 37.7941 33.368 37.7941H35.5962C35.7466 37.7941 35.8878 37.7235 35.9829 37.6069L38.0853 34.9336C38.2204 34.7617 38.294 34.5469 38.294 34.3259C38.2909 33.7827 37.8521 33.3438 37.3088 33.3438Z" fill="#FF6B72"/>
</svg>
