<svg width="55" height="55" viewBox="0 0 55 55" fill="none" xmlns="http://www.w3.org/2000/svg">
<g clip-path="url(#clip0_32_20)">
<path d="M32.1525 20.6117V19.1385C32.1525 19.0035 32.042 18.893 31.9069 18.893H20.1212C19.9862 18.893 19.8757 19.0035 19.8757 19.1385V20.6117C19.8757 20.7468 19.9862 20.8573 20.1212 20.8573H31.9069C32.042 20.8573 32.1525 20.7468 32.1525 20.6117ZM20.1212 23.3126C19.9862 23.3126 19.8757 23.4231 19.8757 23.5581V25.0314C19.8757 25.1664 19.9862 25.2769 20.1212 25.2769H25.7685C25.9036 25.2769 26.0141 25.1664 26.0141 25.0314V23.5581C26.0141 23.4231 25.9036 23.3126 25.7685 23.3126H20.1212ZM31.6614 26.8729C27.9999 26.8729 25.0319 29.8408 25.0319 33.5023C25.0319 37.1639 27.9999 40.1318 31.6614 40.1318C35.323 40.1318 38.2909 37.1639 38.2909 33.5023C38.2909 29.8408 35.323 26.8729 31.6614 26.8729ZM34.9608 36.8017C34.0799 37.6826 32.9075 38.1675 31.6614 38.1675C30.4153 38.1675 29.2429 37.6826 28.362 36.8017C27.4812 35.9209 26.9962 34.7484 26.9962 33.5023C26.9962 32.2563 27.4812 31.0838 28.362 30.203C29.2429 29.3221 30.4153 28.8372 31.6614 28.8372C32.9075 28.8372 34.0799 29.3221 34.9608 30.203C35.8417 31.0838 36.3266 32.2563 36.3266 33.5023C36.3266 34.7484 35.8417 35.9209 34.9608 36.8017ZM34.393 31.1698H33.0333C32.9535 31.1698 32.8799 31.2066 32.8338 31.271L30.8849 33.9658L30.1759 32.9867C30.1532 32.9551 30.1232 32.9294 30.0885 32.9118C30.0538 32.8941 30.0153 32.8851 29.9764 32.8854H28.6229C28.4234 32.8854 28.3068 33.1126 28.4234 33.2752L30.6885 36.4089C30.7867 36.5439 30.9862 36.5439 31.0844 36.4089L34.5894 31.5595C34.7091 31.3969 34.5925 31.1698 34.393 31.1698ZM24.5409 37.1854H17.4203V15.5782H34.6078V26.1363C34.6078 26.2713 34.7183 26.3818 34.8534 26.3818H36.5721C36.7072 26.3818 36.8177 26.2713 36.8177 26.1363V14.3506C36.8177 13.8073 36.3788 13.3684 35.8355 13.3684H16.1927C15.6494 13.3684 15.2105 13.8073 15.2105 14.3506V38.4131C15.2105 38.9563 15.6494 39.3952 16.1927 39.3952H24.5409C24.6759 39.3952 24.7864 39.2847 24.7864 39.1497V37.4309C24.7864 37.2959 24.6759 37.1854 24.5409 37.1854Z" fill="#04D182"/>
</g>
<rect width="55" height="55" rx="10" fill="#04D182" fill-opacity="0.1"/>
<defs>
<clipPath id="clip0_32_20">
<rect width="27.5" height="27.5" fill="white" transform="translate(13 13)"/>
</clipPath>
</defs>
</svg>
