<svg width="55" height="55" viewBox="0 0 55 55" fill="none" xmlns="http://www.w3.org/2000/svg">
<path d="M16.192 26.5106C16.2227 25.1694 16.499 23.868 17.0177 22.6434C17.5486 21.385 18.3098 20.2586 19.2797 19.2857C20.2495 18.3128 21.379 17.5516 22.6374 17.0206C23.9387 16.4713 25.3198 16.192 26.747 16.192C28.1742 16.192 29.5553 16.4713 30.8536 17.0206C32.1084 17.5505 33.2478 18.3199 34.2082 19.2857C34.5121 19.5896 34.7975 19.9118 35.0615 20.2494L33.2138 21.692C33.1772 21.7202 33.1494 21.7583 33.1335 21.8017C33.1176 21.8451 33.1143 21.8921 33.1239 21.9373C33.1335 21.9825 33.1557 22.0241 33.1879 22.0572C33.2201 22.0904 33.261 22.1138 33.3059 22.1247L38.6985 23.4445C38.8519 23.4813 39.0023 23.3647 39.0023 23.2081L39.0269 17.656C39.0269 17.4503 38.7905 17.3337 38.6309 17.4626L36.8999 18.8161C34.5397 15.796 30.8689 13.8594 26.7439 13.8594C19.7124 13.8594 13.9914 19.4944 13.8595 26.4983C13.8586 26.5311 13.8644 26.5637 13.8764 26.5942C13.8883 26.6247 13.9063 26.6525 13.9292 26.6759C13.952 26.6994 13.9794 26.718 14.0096 26.7307C14.0398 26.7435 14.0722 26.75 14.105 26.75H15.9465C16.0816 26.75 16.189 26.6426 16.192 26.5106ZM39.3952 26.75H37.5536C37.4186 26.75 37.3112 26.8574 37.3081 26.9894C37.2774 28.3306 37.0012 29.632 36.4825 30.8566C35.9515 32.115 35.1904 33.2444 34.2205 34.2143C33.2416 35.1973 32.0777 35.9767 30.7961 36.5077C29.5145 37.0387 28.1404 37.3107 26.7531 37.308C25.3663 37.3106 23.9928 37.0386 22.7116 36.5076C21.4305 35.9766 20.2672 35.1972 19.2889 34.2143C18.985 33.9104 18.6996 33.5882 18.4356 33.2506L20.2833 31.808C20.3198 31.7798 20.3477 31.7417 20.3636 31.6983C20.3795 31.6549 20.3828 31.6079 20.3732 31.5627C20.3636 31.5175 20.3414 31.4759 20.3092 31.4428C20.277 31.4096 20.2361 31.3862 20.1912 31.3753L14.7986 30.0555C14.6452 30.0187 14.4948 30.1353 14.4948 30.2919L14.4733 35.8471C14.4733 36.0527 14.7096 36.1694 14.8692 36.0405L16.6002 34.6869C18.9605 37.704 22.6312 39.6406 26.7562 39.6406C33.7908 39.6406 39.5087 34.0025 39.6407 27.0017C39.6415 26.9689 39.6358 26.9363 39.6238 26.9058C39.6118 26.8753 39.5939 26.8475 39.571 26.8241C39.5481 26.8006 39.5208 26.782 39.4906 26.7693C39.4604 26.7565 39.4279 26.75 39.3952 26.75Z" fill="#3E79F7"/>
<rect width="55" height="55" rx="10" fill="#3E79F7" fill-opacity="0.1"/>
</svg>
